<?xml version="1.0" encoding="utf-8"?>
<svg version="1.1" xmlns:xlink="http://www.w3.org/1999/xlink" width="12px" height="12px" viewBox="27 97.5  12 12" xmlns="http://www.w3.org/2000/svg">
  <path d="M 33 97.5  C 36.36 97.5  39 100.14  39 103.5  C 39 106.86  36.36 109.5  33 109.5  C 29.64 109.5  27 106.86  27 103.5  C 27 100.14  29.64 97.5  33 97.5  Z " fill-rule="nonzero" fill="#ffffff" stroke="none" />
  <path d="M 33 98  C 36.08 98  38.5 100.42  38.5 103.5  C 38.5 106.58  36.08 109  33 109  C 29.92 109  27.5 106.58  27.5 103.5  C 27.5 100.42  29.92 98  33 98  Z " stroke-width="1" stroke="#797979" fill="none" />
  <path d="M 33 106.5  C 31.32 106.5  30 105.18  30 103.5  C 30 101.82  31.32 100.5  33 100.5  C 34.68 100.5  36 101.82  36 103.5  C 36 105.18  34.68 106.5  33 106.5  " fill-rule="nonzero" fill="#797979" stroke="none" />
</svg>