<?xml version="1.0" encoding="utf-8"?>
<svg version="1.1" xmlns:xlink="http://www.w3.org/1999/xlink" width="17px" height="12px" xmlns="http://www.w3.org/2000/svg">
  <g transform="matrix(1 0 0 1 -748 -223 )">
    <path d="M 1.30769230769231 9.21428571428571  L 1.30769230769231 11.1428571428571  L 4.25 11.1428571428571  L 4.25 9.21428571428571  L 1.30769230769231 9.21428571428571  Z M 4.90384615384615 9.21428571428571  L 4.90384615384615 11.1428571428571  L 8.17307692307692 11.1428571428571  L 8.17307692307692 9.21428571428571  L 4.90384615384615 9.21428571428571  Z M 1.30769230769231 6.64285714285714  L 1.30769230769231 8.78571428571429  L 4.25 8.78571428571429  L 4.25 6.64285714285714  L 1.30769230769231 6.64285714285714  Z M 4.90384615384615 6.64285714285714  L 4.90384615384615 8.78571428571429  L 8.17307692307692 8.78571428571429  L 8.17307692307692 6.64285714285714  L 4.90384615384615 6.64285714285714  Z M 1.30769230769231 4.28571428571428  L 1.30769230769231 6.21428571428571  L 4.25 6.21428571428571  L 4.25 4.28571428571428  L 1.30769230769231 4.28571428571428  Z M 8.82692307692308 9.21428571428571  L 8.82692307692308 11.1428571428571  L 12.0961538461538 11.1428571428571  L 12.0961538461538 9.21428571428571  L 8.82692307692308 9.21428571428571  Z M 4.90384615384615 4.28571428571428  L 4.90384615384615 6.21428571428571  L 8.17307692307692 6.21428571428571  L 8.17307692307692 4.28571428571428  L 4.90384615384615 4.28571428571428  Z M 12.75 9.21428571428571  L 12.75 11.1428571428571  L 15.6923076923077 11.1428571428571  L 15.6923076923077 9.21428571428571  L 12.75 9.21428571428571  Z M 8.82692307692308 6.64285714285714  L 8.82692307692308 8.78571428571429  L 12.0961538461538 8.78571428571429  L 12.0961538461538 6.64285714285714  L 8.82692307692308 6.64285714285714  Z M 5.13371394230769 3.15066964285714  C 5.19841746794872 3.10825892857143  5.23076923076923 3.05803571428571  5.23076923076923 3  L 5.23076923076923 1.07142857142857  C 5.23076923076923 1.01339285714286  5.19841746794872 0.963169642857142  5.13371394230769 0.920758928571428  C 5.06901041666667 0.878348214285713  4.99238782051282 0.857142857142857  4.90384615384615 0.857142857142857  L 4.25 0.857142857142857  C 4.16145833333333 0.857142857142857  4.08483573717949 0.878348214285713  4.02013221153846 0.920758928571428  C 3.95542868589744 0.963169642857142  3.92307692307692 1.01339285714286  3.92307692307692 1.07142857142857  L 3.92307692307692 3  C 3.92307692307692 3.05803571428571  3.95542868589744 3.10825892857143  4.02013221153846 3.15066964285714  C 4.08483573717949 3.19308035714286  4.16145833333333 3.21428571428571  4.25 3.21428571428571  L 4.90384615384615 3.21428571428571  C 4.99238782051282 3.21428571428571  5.06901041666667 3.19308035714286  5.13371394230769 3.15066964285714  Z M 12.75 6.64285714285714  L 12.75 8.78571428571429  L 15.6923076923077 8.78571428571429  L 15.6923076923077 6.64285714285714  L 12.75 6.64285714285714  Z M 8.82692307692308 4.28571428571428  L 8.82692307692308 6.21428571428571  L 12.0961538461538 6.21428571428571  L 12.0961538461538 4.28571428571428  L 8.82692307692308 4.28571428571428  Z M 12.75 4.28571428571428  L 12.75 6.21428571428571  L 15.6923076923077 6.21428571428571  L 15.6923076923077 4.28571428571428  L 12.75 4.28571428571428  Z M 12.9798677884615 3.15066964285714  C 13.0445713141026 3.10825892857143  13.0769230769231 3.05803571428571  13.0769230769231 3  L 13.0769230769231 1.07142857142857  C 13.0769230769231 1.01339285714286  13.0445713141026 0.963169642857142  12.9798677884615 0.920758928571428  C 12.9151642628205 0.878348214285713  12.8385416666667 0.857142857142857  12.75 0.857142857142857  L 12.0961538461538 0.857142857142857  C 12.0076121794872 0.857142857142857  11.9309895833333 0.878348214285713  11.8662860576923 0.920758928571428  C 11.8015825320513 0.963169642857142  11.7692307692308 1.01339285714286  11.7692307692308 1.07142857142857  L 11.7692307692308 3  C 11.7692307692308 3.05803571428571  11.8015825320513 3.10825892857143  11.8662860576923 3.15066964285714  C 11.9309895833333 3.19308035714286  12.0076121794872 3.21428571428571  12.0961538461538 3.21428571428571  L 12.75 3.21428571428571  C 12.8385416666667 3.21428571428571  12.9151642628205 3.19308035714286  12.9798677884615 3.15066964285714  Z M 16.6117788461538 1.96875  C 16.8705929487179 2.13839285714286  17 2.33928571428571  17 2.57142857142857  L 17 11.1428571428571  C 17 11.375  16.8705929487179 11.5758928571429  16.6117788461538 11.7455357142857  C 16.3529647435897 11.9151785714286  16.0464743589744 12  15.6923076923077 12  L 1.30769230769231 12  C 0.953525641025641 12  0.647035256410257 11.9151785714286  0.388221153846154 11.7455357142857  C 0.129407051282051 11.5758928571429  0 11.375  0 11.1428571428571  L 0 2.57142857142857  C 0 2.33928571428571  0.129407051282051 2.13839285714286  0.388221153846154 1.96875  C 0.647035256410257 1.79910714285714  0.953525641025641 1.71428571428571  1.30769230769231 1.71428571428571  L 2.61538461538462 1.71428571428571  L 2.61538461538462 1.07142857142857  C 2.61538461538462 0.776785714285715  2.77544070512821 0.524553571428571  3.09555288461538 0.314732142857143  C 3.41566506410256 0.104910714285714  3.80048076923077 0  4.25 0  L 4.90384615384615 0  C 5.35336538461538 0  5.73818108974359 0.104910714285714  6.05829326923077 0.314732142857143  C 6.37840544871795 0.524553571428571  6.53846153846154 0.776785714285715  6.53846153846154 1.07142857142857  L 6.53846153846154 1.71428571428571  L 10.4615384615385 1.71428571428571  L 10.4615384615385 1.07142857142857  C 10.4615384615385 0.776785714285715  10.6215945512821 0.524553571428571  10.9417067307692 0.314732142857143  C 11.2618189102564 0.104910714285714  11.6466346153846 0  12.0961538461538 0  L 12.75 0  C 13.1995192307692 0  13.5843349358974 0.104910714285714  13.9044471153846 0.314732142857143  C 14.2245592948718 0.524553571428571  14.3846153846154 0.776785714285715  14.3846153846154 1.07142857142857  L 14.3846153846154 1.71428571428571  L 15.6923076923077 1.71428571428571  C 16.0464743589744 1.71428571428571  16.3529647435897 1.79910714285714  16.6117788461538 1.96875  Z " fill-rule="nonzero" fill="#8c8c8c" stroke="none" transform="matrix(1 0 0 1 748 223 )" />
  </g>
</svg>