<?xml version="1.0" encoding="utf-8"?>
<svg version="1.1" xmlns:xlink="http://www.w3.org/1999/xlink" width="101px" height="40px" xmlns="http://www.w3.org/2000/svg">
  <defs>
    <mask fill="white" id="clip5">
      <path d="M 0 35  L 0 5  C 0 2.2  2.20000000000005 0  5 0  L 58.7857142857123 0  L 96 0  C 98.8 0  101 2.2  101 5  L 101 35  C 101 37.8  98.8 40  96 40  L 5 40  C 2.20000000000005 40  0 37.8  0 35  Z " fill-rule="evenodd" />
    </mask>
  </defs>
  <g transform="matrix(1 0 0 1 -871 -109 )">
    <path d="M 0 35  L 0 5  C 0 2.2  2.20000000000005 0  5 0  L 58.7857142857123 0  L 96 0  C 98.8 0  101 2.2  101 5  L 101 35  C 101 37.8  98.8 40  96 40  L 5 40  C 2.20000000000005 40  0 37.8  0 35  Z " fill-rule="nonzero" fill="#ffffff" stroke="none" transform="matrix(1 0 0 1 871 109 )" />
    <path d="M 0 35  L 0 5  C 0 2.2  2.20000000000005 0  5 0  L 58.7857142857123 0  L 96 0  C 98.8 0  101 2.2  101 5  L 101 35  C 101 37.8  98.8 40  96 40  L 5 40  C 2.20000000000005 40  0 37.8  0 35  Z " stroke-width="2" stroke="#797979" fill="none" transform="matrix(1 0 0 1 871 109 )" mask="url(#clip5)" />
  </g>
</svg>